<?xml version="1.0" standalone="no"?>
<!DOCTYPE svg PUBLIC "-//W3C//DTD SVG 20010904//EN"
 "http://www.w3.org/TR/2001/REC-SVG-20010904/DTD/svg10.dtd">
<svg version="1.0" xmlns="http://www.w3.org/2000/svg"
 width="534.000000pt" height="534.000000pt" viewBox="0 0 534.000000 534.000000"
 preserveAspectRatio="xMidYMid meet">
<metadata>
Created by potrace 1.11, written by Peter Selinger 2001-2013
</metadata>
<g transform="translate(0.000000,534.000000) scale(0.100000,-0.100000)"
fill="#000000" stroke="none">
<path d="M2506 5023 c-2 -3 -32 -6 -67 -8 -35 -3 -77 -8 -94 -11 -16 -4 -41
-8 -55 -9 -14 -1 -38 -5 -55 -8 -16 -4 -39 -9 -50 -11 -55 -11 -121 -30 -131
-37 -6 -5 -13 -7 -16 -4 -4 5 -64 -13 -108 -32 -19 -8 -42 -14 -57 -15 -7 -1
-13 -5 -13 -10 0 -4 -3 -7 -7 -6 -14 4 -113 -36 -113 -45 0 -4 -4 -6 -9 -2 -5
3 -17 -3 -27 -12 -10 -10 -19 -16 -21 -14 -7 6 -63 -21 -63 -31 0 -5 -4 -6
-10 -3 -5 3 -10 1 -10 -6 0 -7 -3 -9 -6 -6 -7 7 -115 -49 -125 -65 -3 -5 -9
-9 -12 -9 -12 1 -107 -62 -107 -71 0 -5 -4 -7 -9 -3 -5 3 -17 -5 -26 -17 -8
-13 -18 -21 -21 -19 -8 5 -104 -71 -104 -81 0 -5 -5 -8 -11 -8 -19 0 -179
-154 -179 -172 0 -6 -3 -8 -7 -5 -9 9 -93 -85 -86 -97 4 -5 2 -7 -3 -4 -5 3
-15 0 -22 -8 -7 -8 -11 -14 -8 -14 3 0 -7 -13 -22 -30 -43 -47 -77 -94 -74
-102 1 -4 -2 -8 -7 -8 -15 0 -200 -302 -205 -334 -1 -6 -12 -31 -24 -55 -41
-78 -116 -281 -104 -281 4 0 2 -4 -5 -8 -6 -4 -14 -21 -17 -37 -2 -17 -5 -31
-6 -32 -3 -4 -18 -65 -25 -103 -1 -3 -4 -14 -7 -25 -4 -11 -9 -36 -12 -55 -3
-19 -8 -46 -11 -60 -5 -25 -7 -40 -22 -175 -9 -82 -9 -378 0 -450 14 -112 18
-144 22 -166 3 -13 8 -40 11 -59 8 -41 10 -50 25 -110 6 -25 13 -56 15 -69 3
-13 9 -32 14 -41 5 -10 6 -20 3 -24 -3 -3 0 -6 7 -6 7 0 11 -3 7 -6 -5 -5 20
-88 40 -134 3 -8 7 -18 7 -22 1 -3 4 -10 9 -14 4 -4 7 -16 7 -26 0 -10 4 -18
8 -18 5 0 9 -6 9 -13 0 -19 115 -247 125 -247 4 0 7 -3 6 -8 -3 -12 24 -62 34
-62 4 0 8 -5 8 -11 0 -11 75 -128 89 -139 4 -3 22 -25 41 -50 19 -25 38 -46
42 -48 5 -2 8 -8 8 -14 0 -15 27 -38 35 -30 5 4 5 2 2 -4 -4 -7 13 -30 38 -53
24 -22 41 -41 37 -41 -4 0 6 -11 22 -25 16 -14 33 -25 38 -25 4 0 7 -6 5 -12
-1 -7 4 -12 11 -10 8 1 11 -1 8 -6 -6 -10 77 -82 94 -82 6 0 8 -4 5 -10 -3 -5
-3 -10 2 -10 4 0 24 -14 43 -30 19 -17 53 -43 75 -58 22 -15 49 -35 59 -44 11
-10 25 -18 32 -18 7 0 14 -4 16 -8 15 -38 468 -259 568 -277 3 -1 32 -9 65
-20 33 -10 62 -19 65 -20 3 0 23 -5 45 -10 22 -4 45 -9 50 -11 32 -7 145 -27
175 -30 19 -2 62 -7 95 -11 33 -4 130 -7 215 -7 192 0 298 10 441 39 41 9 83
17 94 19 11 2 32 6 47 9 14 3 36 10 47 17 12 6 21 9 21 6 0 -5 95 25 170 54
30 12 69 26 85 32 17 6 33 16 37 22 4 6 8 8 8 3 0 -4 15 0 33 10 17 9 34 18
37 18 3 0 16 7 29 14 14 8 53 29 88 47 34 18 83 46 108 63 25 17 50 31 56 31
5 0 9 3 9 8 0 4 24 23 54 42 30 19 52 39 49 44 -3 5 -2 6 4 3 5 -3 24 7 42 23
18 17 37 30 42 30 6 0 7 5 4 10 -3 6 0 10 7 10 7 0 51 37 98 82 47 45 79 78
71 73 -9 -5 -12 -4 -7 3 4 7 13 12 19 12 7 0 20 9 30 20 9 11 15 20 13 20 -2
0 13 17 33 38 20 21 47 53 61 72 14 18 30 38 35 44 6 6 21 28 35 48 14 21 28
38 33 38 4 0 7 7 7 15 0 8 5 15 10 15 6 0 10 4 10 9 0 5 17 36 38 68 20 32 43
67 49 78 19 30 51 99 51 109 0 5 4 12 9 15 22 15 123 273 161 411 20 70 26 97
38 160 3 14 7 36 10 50 3 14 7 34 9 45 2 11 6 34 9 50 25 131 26 503 2 665 -6
39 -25 142 -31 170 -2 14 -7 34 -9 45 -14 69 -52 192 -87 283 -22 59 -43 117
-46 130 -3 12 -9 22 -13 22 -4 0 -13 18 -20 40 -7 22 -17 40 -22 40 -5 0 -7 3
-5 8 3 4 -5 25 -18 47 -13 22 -36 63 -50 90 -15 28 -33 55 -42 62 -8 6 -13 14
-11 17 2 3 -5 15 -14 26 -10 11 -18 24 -18 29 0 5 -6 16 -13 23 -7 7 -24 29
-37 48 -27 39 -113 146 -139 171 -9 10 -31 35 -50 58 -18 22 -38 38 -43 35 -4
-3 -7 -2 -6 3 2 4 -12 23 -30 42 -17 19 -32 32 -32 29 0 -3 -19 13 -43 36 -23
22 -52 48 -63 57 -157 121 -176 135 -182 131 -3 -2 -9 3 -14 12 -5 9 -13 14
-19 11 -5 -4 -9 -2 -9 4 0 11 -60 47 -72 43 -5 -1 -8 2 -8 7 0 10 -240 134
-240 124 0 -5 -4 -2 -9 6 -5 8 -17 15 -28 16 -10 1 -36 10 -58 20 -68 30 -207
76 -213 71 -3 -3 -10 -2 -16 3 -12 10 -169 47 -231 56 -22 2 -51 7 -65 9 -96
17 -481 31 -494 19z"/>
</g>
</svg>
