<?xml version="1.0" encoding="utf-8"?>
<!-- Generator: Adobe Illustrator 15.1.0, SVG Export Plug-In . SVG Version: 6.00 Build 0)  -->
<!DOCTYPE svg PUBLIC "-//W3C//DTD SVG 1.1//EN" "http://www.w3.org/Graphics/SVG/1.1/DTD/svg11.dtd">
<svg version="1.1" id="Layer_1" xmlns="http://www.w3.org/2000/svg" xmlns:xlink="http://www.w3.org/1999/xlink" x="0px" y="0px"
	 width="128px" height="128px" viewBox="0 0 128 128" enable-background="new 0 0 128 128" xml:space="preserve">
<g>
	<circle fill="#C2D5D8" cx="64" cy="64" r="64"/>
	<path fill="#B7C9CC" d="M124.84,83.868c-0.038-0.091-0.061-0.187-0.107-0.271c-0.058-0.217-0.141-0.423-0.25-0.615
		c-0.057-0.215-0.139-0.42-0.246-0.611c-0.057-0.217-0.139-0.421-0.248-0.614c-0.057-0.216-0.139-0.421-0.248-0.614
		c-0.057-0.216-0.141-0.422-0.249-0.613c-0.058-0.217-0.14-0.42-0.247-0.612c-0.057-0.216-0.139-0.421-0.248-0.614
		c-0.059-0.217-0.139-0.424-0.251-0.617c-0.056-0.215-0.138-0.42-0.246-0.609c-0.056-0.217-0.14-0.422-0.249-0.615
		c-0.057-0.215-0.139-0.42-0.247-0.611c-0.056-0.217-0.138-0.422-0.248-0.613c-0.056-0.217-0.138-0.422-0.248-0.614
		c-0.056-0.216-0.139-0.422-0.249-0.615c-0.056-0.215-0.138-0.42-0.247-0.612c-0.056-0.215-0.138-0.42-0.247-0.612
		c-0.057-0.218-0.139-0.423-0.248-0.614c-0.057-0.216-0.14-0.422-0.25-0.615c-0.056-0.215-0.138-0.42-0.246-0.611
		c-0.057-0.217-0.139-0.422-0.248-0.613c-0.057-0.217-0.139-0.421-0.248-0.614c-0.057-0.216-0.139-0.421-0.248-0.614
		c-0.057-0.216-0.14-0.422-0.248-0.615c-0.058-0.215-0.139-0.42-0.248-0.61c-0.057-0.216-0.139-0.421-0.248-0.614
		c-0.057-0.216-0.139-0.421-0.247-0.613c-0.058-0.217-0.14-0.422-0.249-0.615c-0.057-0.215-0.139-0.42-0.247-0.611
		c-0.056-0.216-0.138-0.421-0.248-0.613c-0.056-0.217-0.138-0.422-0.248-0.615c-0.056-0.215-0.14-0.422-0.249-0.613
		c-0.057-0.216-0.139-0.421-0.247-0.612c-0.058-0.217-0.14-0.424-0.251-0.618c-0.055-0.214-0.137-0.419-0.246-0.61
		c-0.056-0.216-0.138-0.421-0.248-0.613c-0.056-0.217-0.139-0.422-0.249-0.615c-0.056-0.215-0.138-0.42-0.247-0.612
		c-0.056-0.216-0.138-0.421-0.248-0.614c-0.056-0.216-0.138-0.421-0.248-0.613c-0.056-0.216-0.139-0.422-0.248-0.615
		c-0.057-0.215-0.139-0.42-0.248-0.612c-0.056-0.216-0.138-0.421-0.246-0.613c-0.058-0.217-0.14-0.422-0.248-0.614
		c-0.058-0.216-0.141-0.422-0.25-0.615c-0.057-0.215-0.139-0.42-0.246-0.612c-0.057-0.216-0.139-0.421-0.248-0.613
		c-0.057-0.217-0.139-0.421-0.248-0.614c-0.057-0.216-0.139-0.421-0.248-0.614c-0.057-0.216-0.139-0.422-0.249-0.615
		c-0.058-0.215-0.138-0.42-0.247-0.611c-0.057-0.216-0.139-0.421-0.248-0.614c-0.057-0.216-0.139-0.421-0.248-0.614
		c-0.057-0.216-0.139-0.422-0.249-0.615c-0.056-0.215-0.138-0.42-0.247-0.611c-0.056-0.216-0.138-0.421-0.248-0.614
		c-0.056-0.216-0.138-0.421-0.248-0.614c-0.056-0.216-0.139-0.422-0.249-0.614c-0.056-0.218-0.139-0.424-0.25-0.616
		c-0.055-0.214-0.137-0.419-0.245-0.61c-0.057-0.216-0.139-0.421-0.248-0.614c-0.057-0.216-0.139-0.421-0.248-0.613
		c-0.057-0.217-0.14-0.423-0.248-0.615c-0.058-0.215-0.14-0.42-0.248-0.612c-0.057-0.216-0.139-0.421-0.248-0.614
		c-0.057-0.216-0.139-0.421-0.248-0.613c-0.057-0.217-0.14-0.423-0.248-0.615c-0.057-0.215-0.139-0.42-0.248-0.612
		c-0.057-0.216-0.139-0.421-0.247-0.614c-0.058-0.216-0.138-0.421-0.248-0.613c-0.056-0.216-0.14-0.422-0.249-0.615
		c-0.057-0.215-0.139-0.42-0.247-0.612c-0.056-0.216-0.138-0.421-0.248-0.613c-0.056-0.217-0.138-0.422-0.248-0.614
		c-0.056-0.216-0.138-0.421-0.248-0.614c-0.056-0.216-0.14-0.422-0.249-0.615c-0.057-0.215-0.139-0.42-0.247-0.611
		c-0.056-0.217-0.138-0.422-0.248-0.614c-0.056-0.216-0.138-0.421-0.248-0.614c-0.056-0.216-0.139-0.422-0.249-0.615
		c-0.056-0.215-0.138-0.42-0.246-0.611c-0.057-0.217-0.139-0.422-0.248-0.614c-0.057-0.216-0.139-0.421-0.248-0.614
		c-0.058-0.218-0.141-0.425-0.252-0.62c-0.056-0.213-0.137-0.416-0.244-0.606c-0.058-0.217-0.14-0.421-0.248-0.614
		c-0.058-0.216-0.14-0.421-0.248-0.614c-0.058-0.216-0.141-0.422-0.25-0.615c-0.057-0.215-0.139-0.42-0.246-0.611
		c-0.057-0.216-0.139-0.421-0.248-0.614c-0.057-0.216-0.139-0.421-0.248-0.614c-0.057-0.216-0.139-0.421-0.248-0.613
		c-0.057-0.217-0.139-0.423-0.249-0.615c-0.056-0.215-0.138-0.42-0.247-0.612c-0.057-0.216-0.139-0.421-0.248-0.614
		c-0.107-0.421-0.313-0.813-0.625-1.129c-0.469-0.48-1.113-0.75-1.785-0.75c-0.371,0-0.759,0.019-1.154,0.044
		c-0.346,0.021-0.699,0.055-1.061,0.091c-0.002,0.001-0.004,0.001-0.007,0.001c-7.535,0.788-18.474,5.304-25.63,11.819
		c-0.455-0.282-0.934-0.519-1.414-0.731c-0.082-0.036-0.164-0.074-0.247-0.11c-0.146-0.061-0.292-0.117-0.438-0.173
		c-0.222-0.085-0.445-0.165-0.676-0.24c-0.018-0.005-0.033-0.01-0.049-0.016c-1.102-0.355-2.278-0.586-3.521-0.655
		C64.521,34.01,64.251,34,64,34c-0.509,0-1.005,0.035-1.494,0.087c-0.002,0-0.003,0-0.005,0c-2.11,0.224-4.029,0.898-5.651,1.868
		c-1.533-1.396-3.244-2.699-5.057-3.896C44.296,27.026,35.494,24,29,24c-0.139,0-0.275,0.016-0.41,0.041
		c-0.125,0.021-0.245,0.055-0.365,0.094l-0.002,0.001c-0.377,0.124-0.726,0.325-1.008,0.616c-0.471,0.479-0.727,1.128-0.715,1.797
		c0.119,5.908,2.859,13.047,5.273,19.352c0.809,2.104,1.587,4.136,2.227,6.011V66v3c0,0.462,0.023,0.92,0.06,1.376
		c0.012,0.14,0.026,0.276,0.04,0.415c0.033,0.326,0.075,0.65,0.125,0.975c0.022,0.146,0.045,0.289,0.07,0.435
		c0.067,0.372,0.146,0.739,0.235,1.104c0.019,0.074,0.031,0.149,0.051,0.225c0.109,0.424,0.235,0.84,0.373,1.252
		c0.05,0.148,0.104,0.299,0.159,0.445c0.098,0.271,0.199,0.537,0.309,0.803c0.038,0.094,0.079,0.186,0.119,0.277
		c0.043,0.111,0.084,0.227,0.129,0.336c0.038,0.094,0.079,0.187,0.119,0.277c0.043,0.112,0.084,0.227,0.129,0.336
		c0.04,0.098,0.082,0.192,0.123,0.288c0.042,0.108,0.081,0.218,0.125,0.325c0.038,0.094,0.079,0.186,0.119,0.277
		c0.043,0.111,0.084,0.227,0.129,0.336c0.038,0.095,0.079,0.187,0.119,0.277c0.043,0.112,0.084,0.227,0.129,0.336
		c0.038,0.096,0.079,0.188,0.119,0.278c0.043,0.112,0.084,0.226,0.129,0.336c0.038,0.094,0.079,0.187,0.119,0.278
		c0.043,0.111,0.084,0.226,0.129,0.336c0.04,0.097,0.082,0.191,0.123,0.287c0.042,0.107,0.081,0.219,0.125,0.326
		c0.038,0.094,0.079,0.186,0.119,0.276c0.043,0.112,0.084,0.228,0.129,0.336c0.038,0.095,0.079,0.187,0.119,0.278
		c0.043,0.111,0.084,0.226,0.129,0.336c0.038,0.094,0.079,0.186,0.119,0.277c0.043,0.111,0.084,0.227,0.129,0.336
		c0.043,0.104,0.088,0.209,0.133,0.313c0.039,0.102,0.075,0.202,0.116,0.303c0.038,0.094,0.079,0.187,0.119,0.277
		c0.043,0.112,0.083,0.227,0.129,0.336c0.038,0.096,0.079,0.188,0.119,0.278c0.043,0.112,0.083,0.226,0.129,0.336
		c0.038,0.094,0.079,0.187,0.119,0.278c0.043,0.11,0.083,0.226,0.129,0.336c0.04,0.097,0.082,0.19,0.123,0.287
		c0.042,0.107,0.081,0.219,0.125,0.326c0.038,0.094,0.079,0.186,0.119,0.276c0.043,0.112,0.083,0.228,0.129,0.336
		c0.038,0.095,0.079,0.187,0.119,0.278c0.043,0.111,0.083,0.226,0.129,0.336c0.038,0.094,0.079,0.187,0.119,0.277
		c0.043,0.111,0.083,0.227,0.129,0.336c0.04,0.098,0.082,0.191,0.123,0.289c0.042,0.106,0.081,0.217,0.125,0.324
		c0.038,0.094,0.079,0.186,0.119,0.277c0.043,0.111,0.083,0.227,0.129,0.336c0.038,0.095,0.079,0.188,0.119,0.277
		c0.043,0.112,0.083,0.227,0.129,0.336c0.038,0.095,0.079,0.188,0.119,0.279c0.043,0.11,0.083,0.226,0.129,0.336
		c0.038,0.094,0.079,0.186,0.119,0.276c0.043,0.112,0.083,0.228,0.129,0.337c0.04,0.098,0.082,0.191,0.123,0.288
		c0.042,0.106,0.081,0.218,0.125,0.324c0.038,0.095,0.079,0.187,0.119,0.278c0.043,0.111,0.083,0.226,0.129,0.336
		c0.038,0.094,0.079,0.187,0.119,0.277c0.043,0.111,0.083,0.227,0.129,0.336c0.038,0.094,0.079,0.187,0.119,0.277
		c0.043,0.111,0.083,0.227,0.129,0.337c0.04,0.097,0.082,0.19,0.123,0.288c0.042,0.107,0.081,0.218,0.125,0.324
		c0.038,0.095,0.079,0.187,0.119,0.277c0.043,0.112,0.083,0.227,0.129,0.336c0.038,0.094,0.079,0.188,0.119,0.278
		c0.043,0.111,0.083,0.226,0.129,0.336c0.038,0.095,0.079,0.187,0.119,0.277c0.043,0.112,0.083,0.227,0.129,0.337
		c0.04,0.097,0.082,0.191,0.123,0.288c0.042,0.106,0.081,0.218,0.125,0.323c0.038,0.096,0.079,0.188,0.119,0.278
		c0.043,0.112,0.083,0.226,0.129,0.337c0.038,0.094,0.079,0.187,0.119,0.277c0.043,0.111,0.083,0.227,0.129,0.336
		c0.038,0.094,0.079,0.186,0.119,0.277c0.043,0.111,0.083,0.227,0.129,0.337c0.042,0.102,0.086,0.2,0.129,0.303
		c0.04,0.104,0.078,0.209,0.12,0.312c0.04,0.099,0.082,0.192,0.123,0.289c0.042,0.107,0.081,0.217,0.125,0.324
		c0.038,0.094,0.078,0.186,0.119,0.278c0.043,0.11,0.084,0.226,0.129,0.336c0.038,0.094,0.078,0.187,0.119,0.278
		c0.043,0.111,0.084,0.226,0.129,0.336c0.038,0.094,0.078,0.186,0.119,0.277c0.043,0.111,0.084,0.227,0.129,0.336
		c0.04,0.098,0.082,0.191,0.123,0.287c0.042,0.108,0.08,0.219,0.125,0.325c0.037,0.095,0.078,0.187,0.118,0.278
		c0.044,0.111,0.084,0.226,0.13,0.336c0.037,0.094,0.078,0.186,0.118,0.277c0.044,0.111,0.084,0.227,0.13,0.336
		c0.037,0.095,0.078,0.187,0.118,0.277c0.044,0.112,0.084,0.227,0.13,0.336c0.039,0.098,0.082,0.192,0.123,0.288
		c0.041,0.108,0.08,0.218,0.125,0.325c0.037,0.094,0.078,0.186,0.118,0.277c0.043,0.111,0.084,0.227,0.13,0.337
		c0.037,0.094,0.078,0.186,0.118,0.278c0.043,0.11,0.084,0.226,0.13,0.336c0.037,0.094,0.078,0.186,0.118,0.276
		c0.043,0.112,0.084,0.228,0.13,0.336c0.037,0.095,0.078,0.187,0.118,0.278c0.043,0.111,0.084,0.227,0.13,0.336
		c0.039,0.097,0.081,0.191,0.122,0.288c0.042,0.108,0.081,0.218,0.125,0.325c0.038,0.094,0.079,0.186,0.119,0.277
		c0.043,0.111,0.084,0.227,0.129,0.336c0.038,0.094,0.079,0.187,0.119,0.277c0.043,0.111,0.084,0.227,0.129,0.336
		c0.038,0.096,0.079,0.188,0.119,0.278c0.043,0.112,0.084,0.226,0.129,0.336c0.04,0.097,0.082,0.192,0.123,0.288
		c0.042,0.107,0.081,0.218,0.125,0.324c0.038,0.095,0.079,0.187,0.119,0.278c0.043,0.111,0.084,0.226,0.129,0.337
		c0.038,0.094,0.079,0.186,0.119,0.276c0.043,0.112,0.084,0.228,0.129,0.336c0.038,0.095,0.079,0.187,0.119,0.278
		c0.043,0.111,0.084,0.226,0.129,0.336c0.04,0.097,0.082,0.191,0.123,0.287c0.042,0.108,0.081,0.219,0.125,0.326
		c0.038,0.094,0.079,0.186,0.119,0.277c0.043,0.111,0.084,0.227,0.129,0.336c0.038,0.094,0.079,0.186,0.119,0.277
		c0.043,0.111,0.084,0.227,0.129,0.336c0.042,0.104,0.086,0.201,0.129,0.304c0.041,0.104,0.078,0.209,0.12,0.312
		c0.038,0.095,0.079,0.187,0.119,0.279c0.043,0.11,0.083,0.226,0.129,0.336c0.04,0.096,0.082,0.19,0.123,0.287
		c0.042,0.107,0.081,0.219,0.125,0.325c0.038,0.095,0.079,0.187,0.119,0.277c0.043,0.112,0.083,0.227,0.129,0.336
		c0.038,0.095,0.079,0.187,0.119,0.278c0.043,0.111,0.083,0.226,0.129,0.336c0.038,0.094,0.079,0.186,0.119,0.277
		c0.043,0.111,0.083,0.227,0.129,0.336c0.04,0.098,0.082,0.191,0.123,0.288c0.042,0.107,0.081,0.218,0.125,0.325
		c0.038,0.094,0.079,0.186,0.119,0.277c0.043,0.111,0.083,0.227,0.129,0.336c0.038,0.095,0.079,0.187,0.119,0.277
		c0.043,0.112,0.083,0.227,0.129,0.336c0.038,0.094,0.079,0.187,0.119,0.278c0.043,0.111,0.083,0.226,0.129,0.336
		c0.04,0.097,0.082,0.191,0.123,0.288c0.042,0.107,0.081,0.219,0.125,0.325c0.038,0.094,0.079,0.187,0.119,0.276
		c0.043,0.112,0.083,0.228,0.129,0.336c0.038,0.096,0.079,0.188,0.119,0.278c0.043,0.112,0.083,0.226,0.129,0.337
		c0.038,0.094,0.079,0.186,0.119,0.277c0.043,0.111,0.083,0.227,0.129,0.336c0.038,0.094,0.079,0.186,0.119,0.278
		c0.043,0.11,0.083,0.226,0.129,0.336c0.04,0.097,0.082,0.19,0.123,0.286c0.042,0.109,0.081,0.22,0.125,0.326
		c0.038,0.095,0.079,0.187,0.119,0.277c0.043,0.112,0.083,0.227,0.129,0.336c0.038,0.094,0.079,0.186,0.119,0.278
		c0.043,0.11,0.083,0.226,0.129,0.336c0.038,0.094,0.079,0.187,0.119,0.278c0.043,0.111,0.083,0.226,0.129,0.336
		c0.04,0.097,0.082,0.191,0.123,0.287c0.042,0.107,0.081,0.219,0.125,0.324c0.038,0.096,0.079,0.188,0.119,0.278
		c0.043,0.112,0.083,0.226,0.129,0.336c0.038,0.095,0.079,0.187,0.119,0.278c0.043,0.111,0.083,0.226,0.129,0.336
		c0.038,0.094,0.079,0.186,0.119,0.277c0.031,0.08,0.062,0.162,0.093,0.242c2.551,0.311,5.143,0.486,7.775,0.486
		C92.408,128,116.479,109.484,124.84,83.868z"/>
	<path fill="#E6E6E6" d="M96.5,69.055c-1.375-3.57-2.5-8.43-2.5-17.145H64H34c0,8.715-1.125,13.572-2.5,17.145
		c-1.375,3.571,2.79,6.639,5.725,8.9C48.625,86.75,49.625,96,64,96s15.375-9.25,26.775-18.045
		C93.71,75.691,97.875,72.625,96.5,69.055z"/>
	<path fill="#CCCCCC" d="M96.5,69.055c-1.375-3.57-2.5-8.43-2.5-17.145h-3c0,8.715,1.125,13.572,2.5,17.145
		c1.375,3.571-2.79,6.639-5.725,8.9C76.786,86.434,75.456,95.33,62.5,95.961C62.985,95.984,63.481,96,64,96
		c14.375,0,15.375-9.25,26.775-18.045C93.71,75.691,97.875,72.625,96.5,69.055z"/>
	<g>
		<circle fill="#F5F5F5" cx="74.75" cy="64.25" r="5"/>
		<circle fill="#242424" cx="74.75" cy="64.25" r="3"/>
	</g>
	<g>
		<circle fill="#F5F5F5" cx="52.75" cy="64.25" r="5"/>
		<circle fill="#242424" cx="52.75" cy="64.25" r="3"/>
	</g>
	<g>
		<path fill="#CC803D" d="M100.785,24.75C100.316,24.269,99.672,24,99,24c-7.451,0-19.959,4.768-27.852,11.955
			C69.15,34.76,66.707,34,64,34s-5.151,0.76-7.15,1.955C48.956,28.768,36.449,24,29,24c-0.672,0-1.316,0.269-1.785,0.752
			c-0.471,0.479-0.727,1.128-0.715,1.797c0.119,5.908,2.859,13.047,5.273,19.352c0.809,2.104,1.587,7.136,2.227,9.011
			C60.5,54.418,59,78.668,59,86.5h10.016c0-7.83-1.498-32.07,24.984-31.588v-3c0.641-1.877,1.421-3.911,2.229-6.017
			c2.416-6.299,5.154-13.438,5.271-19.346C101.512,25.877,101.256,25.23,100.785,24.75z"/>
	</g>
	<path fill="#B37035" d="M70.096,36.895c0.354-0.319,0.725-0.63,1.092-0.938c-1.916-1.185-4.75-1.955-7.188-1.955
		c-0.511,0-1.009,0.035-1.5,0.087C64.609,34.311,68.477,35.925,70.096,36.895z"/>
	<path fill="#B37035" d="M100.785,24.75C100.316,24.269,99.672,24,99,24c-0.695,0-1.445,0.055-2.223,0.136
		c0.377,0.124,0.727,0.325,1.008,0.614c0.471,0.48,0.727,1.127,0.715,1.799c-0.117,5.906-2.855,13.047-5.271,19.346
		c-0.809,2.104-1.59,4.14-2.229,6.017v3C64.518,54.43,66.016,78.67,66.016,86.5h3c0-7.83-1.498-32.07,24.984-31.588v-3
		c0.641-1.877,1.421-3.911,2.229-6.017c2.416-6.299,5.153-13.438,5.271-19.346C101.512,25.877,101.256,25.23,100.785,24.75z"/>
	<path fill="#B37035" d="M54.804,36.895c0.598-0.355,1.374-0.669,2.046-0.938C48.771,28.668,36.375,24,29,24
		c-0.268,0-0.528,0.054-0.777,0.136C35.756,24.924,47.646,30.378,54.804,36.895z"/>
	<path fill="#242424" d="M64,94c-2.5-2.5-5-4.744-5-7.502c0-2.757,2.244-4.998,5-4.998s5,2.241,5,4.998C69,89.256,66.5,91.5,64,94z"
		/>
	<path fill="#B36624" d="M96.5,29c-2.5,0-15,2.5-17.5,7.5c2.5,2.5,12.5,10,12.5,10C94,41.5,96.5,31.5,96.5,29z"/>
	<path fill="#B36624" d="M31.5,29c2.5,0,15,2.5,17.5,7.5c-2.5,2.5-12.5,10-12.5,10C34,41.5,31.5,31.5,31.5,29z"/>
</g>
</svg>
